<svg width="27.000000" height="27.000000" viewBox="0 0 27 27" fill="none" xmlns="http://www.w3.org/2000/svg" xmlns:xlink="http://www.w3.org/1999/xlink">
	<desc>
			Created with Pixso.
	</desc>
	<defs/>
	<path id="Vector" d="M16.47 13.5L26.56 3.4C26.84 3.12 27 2.75 27 2.35C27 1.96 26.84 1.59 26.56 1.31L25.68 0.43C25.4 0.15 25.03 0 24.63 0C24.24 0 23.87 0.15 23.59 0.43L13.5 10.52L3.4 0.43C3.12 0.15 2.75 0 2.36 0C1.96 0 1.59 0.15 1.31 0.43L0.43 1.31C-0.15 1.89 -0.15 2.82 0.43 3.4L10.52 13.5L0.43 23.59C0.15 23.87 0 24.24 0 24.64C0 25.03 0.15 25.4 0.43 25.68L1.31 26.56C1.59 26.84 1.96 27 2.36 27C2.75 27 3.12 26.84 3.4 26.56L13.5 16.47L23.59 26.56C23.87 26.84 24.24 27 24.63 27L24.63 27C25.03 27 25.4 26.84 25.68 26.56L26.56 25.68C26.84 25.4 26.99 25.03 26.99 24.64C26.99 24.24 26.84 23.87 26.56 23.59L16.47 13.5Z" fill="#FFFFFF" fill-opacity="1.000000" fill-rule="nonzero"/>
</svg>
