<svg width="15.000000" height="15.000000" viewBox="0 0 15 15" fill="none" xmlns="http://www.w3.org/2000/svg" xmlns:xlink="http://www.w3.org/1999/xlink">
	<desc>
			Created with Pixso.
	</desc>
	<defs/>
	<path id="Vector" d="M14.16 10.41C13.12 10.41 12.12 10.25 11.19 9.94C10.9 9.85 10.57 9.91 10.34 10.14L8.51 11.98C6.14 10.78 4.22 8.85 3.02 6.49L4.85 4.65C5.08 4.42 5.14 4.1 5.05 3.81C4.75 2.87 4.58 1.87 4.58 0.83C4.58 0.37 4.21 0 3.75 0L0.83 0C0.37 0 0 0.37 0 0.83C0 8.65 6.34 15 14.16 15C14.62 15 15 14.62 15 14.16L15 11.25C15 10.78 14.62 10.41 14.16 10.41Z" fill="#FFFFFF" fill-opacity="1.000000" fill-rule="nonzero"/>
</svg>
