<svg width="36.000488" height="34.312256" viewBox="0 0 36.0005 34.3123" fill="none" xmlns="http://www.w3.org/2000/svg" xmlns:xlink="http://www.w3.org/1999/xlink">
	<desc>
			Created with Pixso.
	</desc>
	<defs/>
	<path id="Vector" d="M26.43 15.18C23.9 15.18 21.46 16.19 19.67 17.98C17.88 19.78 16.87 22.21 16.87 24.75C16.87 27.28 17.88 29.71 19.67 31.51C21.47 33.3 23.9 34.31 26.43 34.31C28.97 34.31 31.4 33.3 33.19 31.51C34.99 29.71 36 27.28 36 24.75C35.99 22.21 34.98 19.78 33.19 17.99C31.4 16.19 28.97 15.19 26.43 15.18L26.43 15.18ZM26.43 33.18C24.2 33.18 22.05 32.29 20.47 30.71C18.88 29.13 18 26.98 18 24.75C18 22.51 18.88 20.36 20.47 18.78C22.05 17.2 24.2 16.31 26.43 16.31C28.67 16.31 30.82 17.2 32.4 18.78C33.98 20.36 34.87 22.51 34.87 24.75C34.87 26.98 33.98 29.13 32.4 30.71C30.82 32.29 28.67 33.18 26.43 33.18Z" fill="#F4F4F4" fill-opacity="1.000000" fill-rule="nonzero"/>
	<path id="Vector" d="M30.09 23.06L29.53 23.06L29.53 21.65C29.53 20.55 28.94 19.52 27.98 18.97C27.02 18.42 25.84 18.42 24.89 18.97C23.93 19.52 23.34 20.55 23.34 21.65L23.34 23.06L22.78 23.06C22.48 23.06 22.19 23.18 21.98 23.39C21.77 23.6 21.65 23.88 21.65 24.18L21.65 29.25C21.65 29.54 21.77 29.83 21.98 30.04C22.19 30.25 22.48 30.37 22.78 30.37L30.09 30.37C30.39 30.37 30.67 30.25 30.88 30.04C31.1 29.83 31.21 29.54 31.21 29.25L31.21 24.18C31.21 23.88 31.1 23.6 30.88 23.39C30.67 23.18 30.39 23.06 30.09 23.06L30.09 23.06ZM24.46 21.65C24.46 20.95 24.84 20.3 25.45 19.95C26.06 19.59 26.81 19.59 27.42 19.95C28.03 20.3 28.4 20.95 28.4 21.65L28.4 23.06L24.46 23.06L24.46 21.65ZM30.09 29.24L22.78 29.24L22.78 24.18L30.09 24.18L30.09 29.24Z" fill="#F4F4F4" fill-opacity="1.000000" fill-rule="nonzero"/>
	<path id="Vector" d="M1.12 27.56L12.48 27.56C12.68 27.74 12.94 27.84 13.21 27.84L14.34 27.84C14.61 27.84 14.87 27.74 15.08 27.56L16.12 27.56C16.02 27.19 15.94 26.81 15.88 26.43L15.46 26.43L15.46 25.31L15.76 25.31C15.75 25.12 15.75 24.93 15.75 24.75C15.75 24.56 15.75 24.37 15.76 24.18L15.46 24.18L15.46 15.75L20.68 15.75C21.41 15.28 22.2 14.9 23.02 14.62L14.34 14.62L14.34 26.71L13.21 26.71L13.21 14.62L1.12 14.62L1.12 13.5L13.21 13.5L13.21 1.12L14.34 1.12L14.34 13.5L26.43 13.5L26.43 14.06C26.81 14.06 27.18 14.08 27.56 14.12L27.56 13.5C27.56 13.3 27.5 13.11 27.41 12.94C27.31 12.77 27.17 12.62 27 12.53L27 3.5C27.17 3.4 27.31 3.26 27.41 3.09C27.5 2.92 27.56 2.72 27.56 2.53L27.56 1.4C27.56 1.1 27.44 0.82 27.23 0.61C27.02 0.39 26.73 0.28 26.43 0.28L15.08 0.28C14.87 0.1 14.61 0 14.34 0L13.21 0C12.94 0 12.68 0.1 12.48 0.28L1.12 0.28C0.82 0.28 0.54 0.39 0.32 0.61C0.11 0.82 0 1.1 0 1.4L0 2.53C0 2.72 0.05 2.92 0.15 3.09C0.25 3.26 0.39 3.4 0.56 3.5L0.56 12.53C0.39 12.62 0.25 12.77 0.15 12.94C0.05 13.11 0 13.3 0 13.5L0 14.62C0 14.82 0.05 15.01 0.15 15.18C0.25 15.35 0.39 15.49 0.56 15.59L0.56 24.34C0.39 24.44 0.25 24.58 0.15 24.75C0.05 24.92 0 25.11 0 25.31L0 26.43C0 26.73 0.11 27.02 0.32 27.23C0.54 27.44 0.82 27.56 1.12 27.56L1.12 27.56ZM24.75 1.4L26.43 1.4L26.43 2.53L24.75 2.53L24.75 1.4ZM20.25 1.4L23.62 1.4L23.62 8.15L20.25 8.15L20.25 1.4ZM15.46 1.4L19.12 1.4L19.12 2.53L15.46 2.53L15.46 1.4ZM15.46 3.65L19.12 3.65L19.12 8.71C19.12 9.02 19.37 9.28 19.68 9.28L24.18 9.28C24.49 9.28 24.75 9.02 24.75 8.71L24.75 3.65L25.87 3.65L25.87 12.37L15.46 12.37L15.46 3.65ZM8.43 1.4L12.09 1.4L12.09 2.53L8.43 2.53L8.43 1.4ZM3.93 1.4L7.31 1.4L7.31 8.15L3.93 8.15L3.93 1.4ZM3.37 9.28L7.87 9.28C8.18 9.28 8.43 9.02 8.43 8.71L8.43 3.65L12.09 3.65L12.09 12.37L1.68 12.37L1.68 3.65L2.81 3.65L2.81 8.71C2.81 9.02 3.06 9.28 3.37 9.28L3.37 9.28ZM1.12 1.4L2.81 1.4L2.81 2.53L1.12 2.53L1.12 1.4ZM1.68 15.74L12.09 15.74L12.09 24.18L1.68 24.18L1.68 15.74ZM1.12 25.31L12.09 25.31L12.09 26.43L1.12 26.43L1.12 25.31Z" fill="#F4F4F4" fill-opacity="1.000000" fill-rule="nonzero"/>
</svg>
