<svg width="34.125000" height="34.125122" viewBox="0 0 34.125 34.1251" fill="none" xmlns="http://www.w3.org/2000/svg" xmlns:xlink="http://www.w3.org/1999/xlink">
	<desc>
			Created with Pixso.
	</desc>
	<defs/>
	<path id="Vector" d="M12.75 26.58C12.75 26.99 12.42 27.33 12.01 27.33C11.6 27.33 11.26 26.99 11.26 26.58L11.26 20.28C11.26 19.87 11.6 19.54 12.01 19.54C12.42 19.54 12.75 19.87 12.75 20.28L12.75 26.58ZM12.01 18.47C11.01 18.47 10.2 19.28 10.2 20.28L10.2 26.58C10.2 27.58 11.01 28.39 12.01 28.39C13.01 28.39 13.82 27.58 13.82 26.58L13.82 20.28C13.82 19.28 13.01 18.47 12.01 18.47ZM22.85 26.58C22.85 26.99 22.52 27.33 22.11 27.33C21.7 27.33 21.36 26.99 21.36 26.58L21.36 20.28C21.36 19.87 21.7 19.54 22.11 19.54C22.52 19.54 22.85 19.87 22.85 20.28L22.85 26.58ZM22.11 18.47C21.11 18.47 20.3 19.28 20.3 20.28L20.3 26.58C20.3 27.58 21.11 28.39 22.11 28.39C23.11 28.39 23.92 27.58 23.92 26.58L23.92 20.28C23.92 19.28 23.11 18.47 22.11 18.47ZM17.8 26.58C17.8 26.99 17.47 27.33 17.06 27.33C16.65 27.33 16.31 26.99 16.31 26.58L16.31 20.28C16.31 19.87 16.65 19.54 17.06 19.54C17.47 19.54 17.8 19.87 17.8 20.28L17.8 26.58ZM17.06 18.47C16.06 18.47 15.25 19.28 15.25 20.28L15.25 26.58C15.25 27.58 16.06 28.39 17.06 28.39C18.06 28.39 18.87 27.58 18.87 26.58L18.87 20.28C18.87 19.28 18.06 18.47 17.06 18.47ZM33.05 29.43L33.05 17.43C33.05 15.43 31.43 13.81 29.43 13.81L4.68 13.81C2.69 13.81 1.06 15.43 1.06 17.43L1.06 29.43C1.06 31.43 2.69 33.05 4.68 33.05L29.43 33.05C31.43 33.05 33.05 31.43 33.05 29.43L33.05 29.43ZM15.14 8.84C15.7 9.17 16.36 9.37 17.06 9.37C17.76 9.37 18.41 9.17 18.97 8.84L25.53 12.74L8.59 12.74L15.14 8.84ZM15.74 3.25C15.91 3.15 16.01 2.97 16.01 2.78L16.01 1.06L17.9 1.06L17.9 2.46L16.74 3.61C15.78 3.76 15.05 4.6 15.05 5.6C15.05 6.66 15.86 7.52 16.9 7.61L17.86 8.18C17.61 8.26 17.34 8.3 17.06 8.3C15.57 8.3 14.36 7.09 14.36 5.6C14.36 4.63 14.89 3.72 15.74 3.25L15.74 3.25ZM19.05 5.91L19.73 5.23C19.75 5.35 19.76 5.47 19.76 5.6C19.76 6.37 19.43 7.07 18.91 7.56L18.29 7.19C18.69 6.89 18.96 6.43 19.05 5.91L19.05 5.91ZM29.43 12.74L27.61 12.74L19.85 8.12C20.45 7.45 20.82 6.57 20.82 5.6C20.82 5.04 20.7 4.5 20.46 4C20.39 3.84 20.24 3.73 20.07 3.7C19.9 3.67 19.73 3.72 19.6 3.85L18.16 5.29C18.06 5.39 18.01 5.51 18 5.65C17.98 6.15 17.56 6.55 17.06 6.55C16.54 6.55 16.11 6.12 16.11 5.6C16.11 5.09 16.51 4.68 17.01 4.66C17.14 4.65 17.27 4.59 17.36 4.5L18.81 3.05C18.91 2.95 18.97 2.82 18.97 2.68L18.97 0.53C18.97 0.23 18.73 0 18.43 0L15.48 0C15.18 0 14.94 0.23 14.94 0.53L14.94 2.49C13.92 3.18 13.29 4.35 13.29 5.6C13.29 6.57 13.66 7.45 14.26 8.12L6.5 12.74L4.68 12.74C2.1 12.74 0 14.84 0 17.43L0 29.43C0 32.02 2.1 34.12 4.68 34.12L29.43 34.12C32.02 34.12 34.12 32.02 34.12 29.43L34.12 17.43C34.12 14.85 32.02 12.74 29.43 12.74L29.43 12.74ZM31.09 29.43L31.09 17.43C31.09 16.52 30.34 15.78 29.43 15.78L4.68 15.78C3.77 15.78 3.03 16.52 3.03 17.43L3.03 29.43C3.03 30.34 3.77 31.09 4.68 31.09L29.43 31.09C30.34 31.09 31.09 30.34 31.09 29.43L31.09 29.43ZM29.43 14.71L4.68 14.71C3.18 14.71 1.96 15.93 1.96 17.43L1.96 29.43C1.96 30.93 3.18 32.15 4.68 32.15L29.43 32.15C30.93 32.15 32.15 30.93 32.15 29.43L32.15 17.43C32.15 15.93 30.93 14.71 29.43 14.71ZM27.9 26.58C27.9 26.99 27.57 27.33 27.16 27.33C26.75 27.33 26.41 26.99 26.41 26.58L26.41 20.28C26.41 19.87 26.75 19.54 27.16 19.54C27.57 19.54 27.9 19.87 27.9 20.28L27.9 26.58ZM27.16 18.47C28.16 18.47 28.97 19.28 28.97 20.28L28.97 26.58C28.97 27.58 28.16 28.39 27.16 28.39C26.16 28.39 25.35 27.58 25.35 26.58L25.35 20.28C25.35 19.28 26.16 18.47 27.16 18.47ZM7.7 26.58C7.7 26.99 7.37 27.33 6.96 27.33C6.54 27.33 6.21 26.99 6.21 26.58L6.21 20.28C6.21 19.87 6.54 19.54 6.96 19.54C7.37 19.54 7.7 19.87 7.7 20.28L7.7 26.58ZM6.96 18.47C7.96 18.47 8.77 19.28 8.77 20.28L8.77 26.58C8.77 27.58 7.96 28.39 6.96 28.39C5.96 28.39 5.14 27.58 5.14 26.58L5.14 20.28C5.14 19.28 5.96 18.47 6.96 18.47Z" fill="#F4F4F4" fill-opacity="1.000000" fill-rule="evenodd"/>
</svg>
