<svg width="45.000000" height="45.000000" viewBox="0 0 45 45" fill="none" xmlns="http://www.w3.org/2000/svg" xmlns:xlink="http://www.w3.org/1999/xlink">
	<desc>
			Created with Pixso.
	</desc>
	<defs>
		<clipPath id="clip210_259">
			<rect id="noun-contract-4269785 1" rx="-0.500000" width="44.000000" height="44.000000" transform="translate(0.500000 0.500000)" fill="white" fill-opacity="0"/>
		</clipPath>
	</defs>
	<rect id="noun-contract-4269785 1" rx="-0.500000" width="44.000000" height="44.000000" transform="translate(0.500000 0.500000)" fill="#FFFFFF" fill-opacity="0"/>
	<g clip-path="url(#clip210_259)">
		<path id="Vector" d="M34.71 33.43L34.71 31.5C34.71 31.32 34.64 31.16 34.52 31.04C34.4 30.92 34.24 30.85 34.07 30.85L32.21 30.85L33.14 22.55C33.23 21.72 32.96 20.89 32.4 20.26C31.99 19.81 31.45 19.51 30.85 19.4L30.85 8.77C30.85 8.14 30.6 7.55 30.17 7.11C29.73 6.67 29.13 6.42 28.51 6.42L14.78 6.42C14.61 6.42 14.45 6.49 14.33 6.61L7.9 13.04C7.78 13.16 7.71 13.32 7.71 13.5L7.71 34.94C7.71 35.56 7.96 36.16 8.4 36.59C8.83 37.03 9.43 37.28 10.05 37.28L23.14 37.28L23.14 37.92C23.14 38.09 23.21 38.26 23.33 38.38C23.45 38.5 23.61 38.57 23.78 38.57L36.64 38.57C36.81 38.57 36.97 38.5 37.09 38.38C37.21 38.26 37.28 38.09 37.28 37.92L37.28 36.06C37.28 35.37 37.01 34.71 36.53 34.22C36.05 33.73 35.4 33.45 34.71 33.43L34.71 33.43ZM33.42 33.43L27 33.43L27 32.14L33.42 32.14L33.42 33.43ZM31.86 22.42L30.92 30.86L29.5 30.86L28.57 22.42L28.57 22.42C28.51 21.95 28.66 21.48 28.98 21.13C29.3 20.79 29.75 20.6 30.21 20.6C30.68 20.6 31.13 20.79 31.45 21.13C31.76 21.48 31.91 21.94 31.86 22.41L31.86 22.42ZM14.14 8.62L14.14 12.85L9.9 12.85L14.14 8.62ZM23.14 36L10.05 36C9.77 35.99 9.5 35.88 9.3 35.69C9.11 35.49 9 35.22 9 34.94L9 14.14L14.78 14.14C14.95 14.14 15.11 14.07 15.24 13.95C15.36 13.83 15.42 13.67 15.42 13.5L15.42 7.71L28.51 7.71C28.79 7.71 29.06 7.82 29.26 8.02C29.46 8.22 29.57 8.49 29.57 8.77L29.57 19.4C28.97 19.51 28.43 19.81 28.01 20.26C27.46 20.89 27.19 21.72 27.28 22.55L28.21 30.85L26.35 30.85C26 30.85 25.71 31.14 25.71 31.5L25.71 33.42C25.03 33.44 24.39 33.72 23.91 34.2C23.43 34.67 23.16 35.32 23.14 36L23.14 36ZM36 37.28L24.42 37.28L24.42 36.06C24.42 35.7 24.57 35.36 24.82 35.11C25.07 34.85 25.42 34.71 25.77 34.71L34.65 34.71C35 34.71 35.35 34.85 35.6 35.11C35.85 35.36 36 35.7 36 36.06L36 37.28Z" fill="#F4F4F4" fill-opacity="1.000000" fill-rule="nonzero"/>
		<path id="Vector" d="M21.21 30.85L19.28 30.85L19.28 28.92C19.28 28.66 19.12 28.43 18.88 28.33C18.64 28.23 18.37 28.28 18.18 28.47L16.71 29.94L16.71 28.92C16.71 28.66 16.55 28.43 16.31 28.33C16.07 28.23 15.8 28.28 15.61 28.47L13.04 31.04C12.79 31.29 12.79 31.7 13.04 31.95C13.29 32.2 13.7 32.2 13.95 31.95L15.42 30.48L15.42 31.5C15.42 31.76 15.58 31.99 15.82 32.09C15.9 32.12 15.98 32.14 16.07 32.14C16.24 32.14 16.4 32.07 16.52 31.95L18 30.48L18 31.5C18 31.67 18.06 31.83 18.18 31.95C18.3 32.07 18.47 32.14 18.64 32.14L21.21 32.14C21.56 32.14 21.85 31.85 21.85 31.5C21.85 31.14 21.56 30.85 21.21 30.85L21.21 30.85Z" fill="#F4F4F4" fill-opacity="1.000000" fill-rule="nonzero"/>
		<path id="Vector" d="M13.5 18L25.07 18C25.42 18 25.71 17.71 25.71 17.35C25.71 17 25.42 16.71 25.07 16.71L13.5 16.71C13.14 16.71 12.85 17 12.85 17.35C12.85 17.71 13.14 18 13.5 18Z" fill="#F4F4F4" fill-opacity="1.000000" fill-rule="nonzero"/>
		<path id="Vector" d="M13.5 21.85L25.07 21.85C25.42 21.85 25.71 21.56 25.71 21.21C25.71 20.85 25.42 20.57 25.07 20.57L13.5 20.57C13.14 20.57 12.85 20.85 12.85 21.21C12.85 21.56 13.14 21.85 13.5 21.85Z" fill="#F4F4F4" fill-opacity="1.000000" fill-rule="nonzero"/>
		<path id="Vector" d="M25.71 25.07C25.71 24.9 25.64 24.73 25.52 24.61C25.4 24.49 25.24 24.42 25.07 24.42L18.64 24.42C18.28 24.42 18 24.71 18 25.07C18 25.42 18.28 25.71 18.64 25.71L25.07 25.71C25.24 25.71 25.4 25.64 25.52 25.52C25.64 25.4 25.71 25.24 25.71 25.07Z" fill="#F4F4F4" fill-opacity="1.000000" fill-rule="nonzero"/>
		<path id="Vector" d="M18.64 14.14L25.07 14.14C25.42 14.14 25.71 13.85 25.71 13.5C25.71 13.14 25.42 12.85 25.07 12.85L18.64 12.85C18.28 12.85 18 13.14 18 13.5C18 13.85 18.28 14.14 18.64 14.14Z" fill="#F4F4F4" fill-opacity="1.000000" fill-rule="nonzero"/>
	</g>
</svg>
