<svg width="33.230469" height="31.214539" viewBox="0 0 33.2305 31.2145" fill="none" xmlns="http://www.w3.org/2000/svg" xmlns:xlink="http://www.w3.org/1999/xlink">
	<desc>
			Created with Pixso.
	</desc>
	<defs/>
	<path id="Vector" d="M30.99 26.66L2.23 26.66C1 26.66 0 25.66 0 24.42L0 18.53C0 15.94 2.1 13.84 4.68 13.84L28.54 13.84C31.12 13.84 33.23 15.94 33.23 18.53L33.23 24.42C33.23 25.66 32.22 26.66 30.99 26.66L30.99 26.66ZM4.68 15.22C2.86 15.22 1.38 16.71 1.38 18.53L1.38 24.42C1.38 24.89 1.76 25.28 2.23 25.28L30.99 25.28C31.46 25.28 31.84 24.89 31.84 24.42L31.84 18.53C31.84 16.71 30.36 15.22 28.54 15.22L4.68 15.22Z" fill="#F4F4F4" fill-opacity="1.000000" fill-rule="nonzero"/>
	<path id="Vector" d="M28.1 31.21L26.62 31.21C25.34 31.21 24.3 30.16 24.3 28.88L24.3 25.97C24.3 25.59 24.61 25.28 24.99 25.28L29.73 25.28C30.12 25.28 30.43 25.59 30.43 25.97L30.43 28.88C30.43 30.16 29.38 31.21 28.1 31.21ZM25.68 26.66L25.68 28.88C25.68 29.4 26.1 29.82 26.62 29.82L28.1 29.82C28.62 29.82 29.04 29.4 29.04 28.88L29.04 26.66L25.68 26.66Z" fill="#F4F4F4" fill-opacity="1.000000" fill-rule="nonzero"/>
	<path id="Vector" d="M6.6 31.21L5.12 31.21C3.84 31.21 2.79 30.16 2.79 28.88L2.79 25.97C2.79 25.59 3.1 25.28 3.49 25.28L8.23 25.28C8.62 25.28 8.92 25.59 8.92 25.97L8.92 28.88C8.93 30.16 7.88 31.21 6.6 31.21ZM4.18 26.66L4.18 28.88C4.18 29.4 4.6 29.82 5.12 29.82L6.6 29.82C7.12 29.82 7.54 29.4 7.54 28.88L7.54 26.66L4.18 26.66Z" fill="#F4F4F4" fill-opacity="1.000000" fill-rule="nonzero"/>
	<path id="Vector" d="M29.38 15.22L4.01 15.22C3.79 15.22 3.59 15.12 3.46 14.95C3.33 14.77 3.29 14.55 3.35 14.34L4.9 8.99C5.59 6.31 8.02 4.42 10.81 4.42L22.58 4.42C25.37 4.42 27.8 6.31 28.5 9L30.05 14.34C30.11 14.55 30.07 14.77 29.94 14.95C29.81 15.12 29.6 15.22 29.38 15.22L29.38 15.22ZM4.93 13.84L28.46 13.84L27.17 9.38C27.17 9.37 27.17 9.37 27.16 9.36C26.63 7.27 24.74 5.81 22.58 5.81L10.81 5.81C8.65 5.81 6.77 7.27 6.23 9.36L4.93 13.84Z" fill="#F4F4F4" fill-opacity="1.000000" fill-rule="nonzero"/>
	<path id="Vector" d="M27.52 23.16C25.91 23.16 24.61 21.85 24.61 20.25C24.61 18.65 25.91 17.34 27.52 17.34C29.12 17.34 30.43 18.65 30.43 20.25C30.43 21.85 29.12 23.16 27.52 23.16ZM27.52 18.73C26.68 18.73 25.99 19.41 25.99 20.25C25.99 21.09 26.68 21.77 27.52 21.77C28.36 21.77 29.04 21.09 29.04 20.25C29.04 19.41 28.36 18.73 27.52 18.73Z" fill="#F4F4F4" fill-opacity="1.000000" fill-rule="nonzero"/>
	<path id="Vector" d="M5.7 23.16C4.1 23.16 2.79 21.85 2.79 20.25C2.79 18.65 4.1 17.34 5.7 17.34C7.31 17.34 8.61 18.65 8.61 20.25C8.61 21.85 7.31 23.16 5.7 23.16ZM5.7 18.73C4.86 18.73 4.18 19.41 4.18 20.25C4.18 21.09 4.86 21.77 5.7 21.77C6.54 21.77 7.23 21.09 7.23 20.25C7.23 19.41 6.54 18.73 5.7 18.73Z" fill="#F4F4F4" fill-opacity="1.000000" fill-rule="nonzero"/>
	<path id="Vector" d="M21.94 19.54L11.28 19.54C10.9 19.54 10.59 19.23 10.59 18.85C10.59 18.47 10.9 18.16 11.28 18.16L21.94 18.16C22.32 18.16 22.63 18.47 22.63 18.85C22.63 19.23 22.32 19.54 21.94 19.54Z" fill="#F4F4F4" fill-opacity="1.000000" fill-rule="nonzero"/>
	<path id="Vector" d="M21.94 22.34L11.28 22.34C10.9 22.34 10.59 22.03 10.59 21.65C10.59 21.27 10.9 20.96 11.28 20.96L21.94 20.96C22.32 20.96 22.63 21.27 22.63 21.65C22.63 22.03 22.32 22.34 21.94 22.34Z" fill="#F4F4F4" fill-opacity="1.000000" fill-rule="nonzero"/>
	<path id="Vector" d="M18.91 5.81L14.48 5.81C14.1 5.81 13.79 5.5 13.79 5.11L13.79 2.9C13.79 1.3 15.1 0 16.7 0C18.3 0 19.6 1.3 19.6 2.9L19.6 5.11C19.6 5.5 19.29 5.81 18.91 5.81ZM15.18 4.42L18.22 4.42L18.22 2.9C18.22 2.06 17.54 1.38 16.7 1.38C15.86 1.38 15.18 2.06 15.18 2.9L15.18 4.42Z" fill="#F4F4F4" fill-opacity="1.000000" fill-rule="nonzero"/>
	<path id="Vector" d="M24.2 12.94L9.2 12.94C8.98 12.94 8.78 12.83 8.65 12.66C8.51 12.49 8.47 12.26 8.53 12.05L9.91 7.21C10 6.91 10.27 6.71 10.58 6.71L22.82 6.71C23.13 6.71 23.4 6.91 23.48 7.21L24.86 12.05C24.92 12.26 24.88 12.49 24.75 12.66C24.62 12.83 24.41 12.94 24.2 12.94L24.2 12.94ZM10.12 11.55L23.28 11.55L22.3 8.09L11.1 8.09L10.12 11.55Z" fill="#F4F4F4" fill-opacity="1.000000" fill-rule="nonzero"/>
</svg>
