<svg width="35.999023" height="36.000244" viewBox="0 0 35.999 36.0002" fill="none" xmlns="http://www.w3.org/2000/svg" xmlns:xlink="http://www.w3.org/1999/xlink">
	<desc>
			Created with Pixso.
	</desc>
	<defs/>
	<path id="Vector" d="M2.39 35.99L25.19 35.99C25.83 35.99 26.44 35.74 26.89 35.29C27.34 34.84 27.59 34.23 27.59 33.59L27.59 19.73L35.82 6.05C35.99 5.78 36.04 5.45 35.96 5.14C35.88 4.83 35.68 4.57 35.4 4.41L32.31 2.56C32.03 2.4 31.71 2.36 31.4 2.43C31.09 2.51 30.83 2.71 30.66 2.98L27.59 8.08L27.59 4.19C27.59 3.56 27.34 2.95 26.89 2.5C26.44 2.05 25.83 1.79 25.19 1.79L18.43 1.79C18.22 1.42 17.82 1.2 17.39 1.2L16.19 1.2C16.19 0.88 16.07 0.57 15.84 0.35C15.62 0.12 15.31 0 15 0L12.59 0C12.28 0 11.97 0.12 11.75 0.35C11.52 0.57 11.39 0.88 11.39 1.2L10.19 1.2C9.77 1.2 9.37 1.42 9.16 1.79L2.39 1.79C1.76 1.79 1.15 2.05 0.7 2.5C0.25 2.95 0 3.56 0 4.19L0 33.6C0 34.23 0.25 34.84 0.7 35.29C1.15 35.74 1.76 36 2.39 36L2.39 35.99ZM9.16 5.39C9.37 5.76 9.77 5.99 10.19 5.99L17.39 5.99C17.82 5.99 18.21 5.76 18.43 5.39L23.99 5.39L23.99 14.06L21.09 18.89L21.09 18.89C21.04 18.96 21.01 19.04 21.01 19.13L20.41 24.05L20.41 24.05C20.37 24.31 20.44 24.57 20.6 24.79C20.75 25 20.99 25.14 21.25 25.18C21.51 25.22 21.78 25.16 21.99 25.01L23.99 23.61L23.99 32.4L3.59 32.4L3.59 5.4L9.16 5.39ZM21.64 23.79L22.08 20.19L24.63 21.7L21.64 23.79ZM25.53 20.84L22.42 18.99L28.91 8.21L32.02 10.06L25.53 20.84ZM30.15 6.16L33.25 8L32.63 9.03L29.53 7.19L30.15 6.16ZM31.69 3.6L34.79 5.44L33.87 6.98L30.77 5.13L31.69 3.6ZM26.39 4.2L26.39 10.07L25.19 12.06L25.19 5.4C25.19 5.08 25.07 4.77 24.84 4.55C24.62 4.32 24.31 4.2 23.99 4.2L18.59 4.2L18.59 3L25.19 3C25.51 3 25.82 3.12 26.04 3.35C26.27 3.57 26.39 3.88 26.39 4.2L26.39 4.2ZM12.59 1.2L14.99 1.2L14.99 2.4L12.59 2.4L12.59 1.2ZM11.39 2.4C11.39 2.71 11.52 3.02 11.75 3.24C11.97 3.47 12.28 3.6 12.59 3.6L14.99 3.6C15.31 3.6 15.62 3.47 15.84 3.24C16.07 3.02 16.19 2.71 16.19 2.4L17.39 2.4L17.39 4.8L10.19 4.8L10.19 2.4L11.39 2.4ZM1.19 4.2C1.19 3.88 1.32 3.57 1.55 3.35C1.77 3.12 2.08 3 2.39 3L8.99 3L8.99 4.2L3.59 4.2C3.28 4.2 2.97 4.32 2.75 4.55C2.52 4.77 2.39 5.08 2.39 5.4L2.39 32.4C2.39 32.71 2.52 33.02 2.75 33.24C2.97 33.47 3.28 33.6 3.59 33.6L23.99 33.6C24.31 33.6 24.62 33.47 24.84 33.24C25.07 33.02 25.19 32.71 25.19 32.4L25.19 22.77L26.08 22.15C26.15 22.1 26.21 22.04 26.25 21.97L26.39 21.73L26.39 33.6C26.39 33.91 26.27 34.22 26.04 34.44C25.82 34.67 25.51 34.8 25.19 34.8L2.39 34.8C2.08 34.8 1.77 34.67 1.55 34.44C1.32 34.22 1.19 33.91 1.19 33.6L1.19 4.2Z" fill="#F4F4F4" fill-opacity="1.000000" fill-rule="nonzero"/>
	<path id="Vector" d="M7.19 30C7.82 29.99 8.43 29.75 8.87 29.31C9.32 28.86 9.58 28.26 9.59 27.64C13.1 26.45 20.07 22.56 20.38 10.43L21.17 11.22L21.17 11.22C21.41 11.45 21.78 11.44 22.01 11.21C22.24 10.98 22.25 10.61 22.02 10.37L20.22 8.57C19.98 8.34 19.6 8.34 19.37 8.57L17.57 10.37C17.34 10.61 17.35 10.98 17.58 11.21C17.81 11.44 18.18 11.45 18.42 11.22L19.18 10.46C19.03 14.93 17.64 23.63 9.3 26.46C9.03 25.96 8.59 25.58 8.06 25.37C7.53 25.16 6.95 25.15 6.41 25.33C5.88 25.52 5.42 25.89 5.13 26.37C4.84 26.86 4.73 27.44 4.83 28C4.92 28.55 5.21 29.06 5.64 29.43C6.08 29.8 6.63 30 7.19 29.99L7.19 30ZM7.19 26.4C7.51 26.4 7.82 26.52 8.04 26.75C8.27 26.97 8.39 27.28 8.39 27.59C8.39 27.91 8.27 28.22 8.04 28.44C7.82 28.67 7.51 28.79 7.19 28.79C6.88 28.79 6.57 28.67 6.35 28.44C6.12 28.22 5.99 27.91 5.99 27.59C5.99 27.28 6.12 26.97 6.35 26.75C6.57 26.52 6.88 26.4 7.19 26.4Z" fill="#F4F4F4" fill-opacity="1.000000" fill-rule="nonzero"/>
	<path id="Vector" d="M19.02 26.57C18.78 26.34 18.4 26.34 18.17 26.57L16.79 27.95L15.42 26.57L15.42 26.57C15.18 26.34 14.81 26.35 14.58 26.58C14.35 26.81 14.34 27.18 14.57 27.42L15.95 28.79L14.57 30.17C14.45 30.28 14.39 30.44 14.39 30.6C14.39 30.76 14.45 30.91 14.56 31.03C14.68 31.14 14.83 31.2 14.99 31.2C15.15 31.2 15.31 31.13 15.42 31.02L16.79 29.64L18.17 31.02L18.17 31.02C18.41 31.25 18.78 31.24 19.01 31.01C19.24 30.78 19.25 30.41 19.02 30.17L17.64 28.79L19.02 27.42C19.25 27.18 19.25 26.8 19.02 26.57L19.02 26.57Z" fill="#F4F4F4" fill-opacity="1.000000" fill-rule="nonzero"/>
	<path id="Vector" d="M5.57 22.02C5.8 22.25 6.18 22.25 6.42 22.02L7.79 20.64L9.17 22.02L9.17 22.02C9.41 22.25 9.78 22.24 10.01 22.01C10.24 21.78 10.25 21.41 10.02 21.17L8.64 19.79L10.02 18.42C10.25 18.18 10.24 17.81 10.01 17.58C9.78 17.35 9.41 17.34 9.17 17.57L7.79 18.95L6.42 17.57L6.42 17.57C6.18 17.34 5.81 17.35 5.58 17.58C5.35 17.81 5.34 18.18 5.57 18.42L6.95 19.79L5.57 21.17C5.34 21.41 5.34 21.78 5.57 22.02L5.57 22.02Z" fill="#F4F4F4" fill-opacity="1.000000" fill-rule="nonzero"/>
	<path id="Vector" d="M10.37 14.82C10.6 15.05 10.98 15.05 11.22 14.82L12.59 13.44L13.97 14.82L13.97 14.82C14.21 15.05 14.58 15.04 14.81 14.81C15.04 14.58 15.05 14.21 14.82 13.97L13.44 12.59L14.82 11.22L14.82 11.22C15.05 10.98 15.04 10.61 14.81 10.38C14.58 10.15 14.21 10.14 13.97 10.37L12.59 11.75L11.22 10.37L11.22 10.37C10.98 10.14 10.61 10.15 10.38 10.38C10.15 10.61 10.14 10.98 10.37 11.22L11.75 12.59L10.37 13.97L10.37 13.97C10.14 14.21 10.14 14.58 10.37 14.82L10.37 14.82Z" fill="#F4F4F4" fill-opacity="1.000000" fill-rule="nonzero"/>
</svg>
