<svg width="41.185059" height="29.521973" viewBox="0 0 41.1851 29.522" fill="none" xmlns="http://www.w3.org/2000/svg" xmlns:xlink="http://www.w3.org/1999/xlink">
	<desc>
			Created with Pixso.
	</desc>
	<defs/>
	<path id="Vector" d="M34.59 25.66C34.59 26.26 34.1 26.75 33.49 26.75C32.88 26.75 32.39 26.26 32.39 25.66C32.39 25.05 32.88 24.56 33.49 24.56C34.1 24.56 34.59 25.05 34.59 25.66ZM11.44 25.66C11.44 26.26 10.95 26.75 10.35 26.75C9.74 26.75 9.25 26.26 9.25 25.66C9.25 25.05 9.74 24.56 10.35 24.56C10.95 24.56 11.44 25.05 11.44 25.66ZM29.56 13.91L29.56 8.92L34.65 8.92L36.77 13.91L29.56 13.91ZM38.28 14.91C38.4 14.73 38.42 14.5 38.33 14.3L35.67 8.02C35.57 7.78 35.33 7.63 35.07 7.63L28.91 7.63C28.56 7.63 28.27 7.92 28.27 8.27L28.27 14.55C28.27 14.91 28.56 15.2 28.91 15.2L37.74 15.2C37.96 15.2 38.16 15.09 38.28 14.91ZM39.89 19.99L39.89 22.15L38.58 22.15L38.58 19.99L39.89 19.99ZM39.33 25.01C39.64 25.01 39.89 24.76 39.89 24.45L39.89 23.44L38.5 23.44C37.83 23.44 37.3 22.9 37.3 22.24L37.3 19.9C37.3 19.24 37.83 18.7 38.5 18.7L39.89 18.7L39.89 15.15C39.89 15 39.87 14.88 39.81 14.74L36.62 7.23C36.41 6.74 35.92 6.45 35.33 6.45L27.09 6.45L27.09 25.01L29.68 25.01C29.99 23.19 31.58 21.79 33.49 21.79C35.4 21.79 36.99 23.19 37.3 25.01L39.33 25.01ZM33.49 28.23C34.91 28.23 36.06 27.07 36.06 25.66C36.06 24.24 34.91 23.08 33.49 23.08C32.07 23.08 30.91 24.24 30.91 25.66C30.91 27.08 32.07 28.23 33.49 28.23ZM10.35 21.79C12.26 21.79 13.84 23.19 14.15 25.01L25.8 25.01L25.8 20.49L1.28 20.49L1.28 24.05C1.28 24.58 1.72 25.01 2.25 25.01L6.54 25.01C6.85 23.19 8.44 21.79 10.35 21.79ZM10.35 28.23C11.77 28.23 12.92 27.07 12.92 25.66C12.92 24.24 11.77 23.08 10.35 23.08C8.93 23.08 7.77 24.24 7.77 25.66C7.77 27.08 8.93 28.23 10.35 28.23ZM2.25 1.28L9.42 1.28C10.08 1.28 10.35 1.28 10.7 1.28L13.54 1.28L16.38 1.28C16.73 1.28 16.62 1.28 17.06 1.28L17.66 1.28L24.83 1.28C25.37 1.28 25.8 1.72 25.8 2.25L25.8 19.2L1.28 19.2L1.28 2.25C1.28 1.71 1.71 1.28 2.25 1.28ZM40.99 14.24L37.8 6.72C37.39 5.76 36.45 5.16 35.33 5.16L27.09 5.16L27.09 2.25C27.09 1.01 26.08 0 24.83 0L2.25 0C1.01 0 0 1.01 0 2.25L0 24.05C0 25.29 1.01 26.3 2.25 26.3L6.54 26.3C6.85 28.12 8.44 29.52 10.35 29.52C12.26 29.52 13.84 28.12 14.15 26.3L29.68 26.3C29.99 28.12 31.58 29.52 33.49 29.52C35.4 29.52 36.99 28.12 37.3 26.3L39.33 26.3C40.35 26.3 41.18 25.47 41.18 24.45L41.18 15.15C41.18 14.83 41.12 14.54 40.99 14.24Z" fill="#F4F4F4" fill-opacity="1.000000" fill-rule="evenodd"/>
</svg>
