<svg width="42.656250" height="25.228149" viewBox="0 0 42.6562 25.2281" fill="none" xmlns="http://www.w3.org/2000/svg" xmlns:xlink="http://www.w3.org/1999/xlink">
	<desc>
			Created with Pixso.
	</desc>
	<defs/>
	<path id="Vector" d="M35.82 21.22C35.82 21.85 35.31 22.36 34.69 22.36C34.06 22.36 33.55 21.85 33.55 21.22C33.55 20.6 34.06 20.09 34.69 20.09C35.31 20.09 35.82 20.6 35.82 21.22ZM11.85 21.22C11.85 21.85 11.34 22.36 10.72 22.36C10.09 22.36 9.58 21.85 9.58 21.22C9.58 20.6 10.09 20.09 10.72 20.09C11.34 20.09 11.85 20.6 11.85 21.22ZM30.61 9.06L30.61 3.89L35.89 3.89L38.08 9.06L30.61 9.06L30.61 9.06ZM39.65 10.09C39.77 9.91 39.79 9.67 39.7 9.46L36.94 2.96C36.84 2.71 36.6 2.55 36.33 2.55L29.95 2.55C29.58 2.55 29.28 2.85 29.28 3.22L29.28 9.72C29.28 10.09 29.58 10.39 29.95 10.39L39.09 10.39C39.31 10.39 39.52 10.28 39.65 10.09L39.65 10.09ZM41.32 15.35L41.32 17.59L39.96 17.59L39.96 15.35L41.32 15.35ZM40.74 20.56C41.06 20.56 41.32 20.3 41.32 19.97L41.32 18.93L39.87 18.93C39.19 18.93 38.63 18.37 38.63 17.68L38.63 15.26C38.63 14.58 39.19 14.02 39.87 14.02L41.32 14.02L41.32 10.35C41.32 10.19 41.29 10.07 41.23 9.92L37.93 2.14C37.71 1.64 37.2 1.33 36.6 1.33L28.05 1.33L28.05 20.56L30.74 20.56C31.06 18.67 32.71 17.22 34.69 17.22C36.66 17.22 38.31 18.67 38.63 20.56L40.74 20.56ZM34.69 23.89C36.16 23.89 37.35 22.69 37.35 21.22C37.35 19.75 36.16 18.56 34.69 18.56C33.22 18.56 32.02 19.75 32.02 21.22C32.02 22.69 33.22 23.89 34.69 23.89ZM14.66 20.56L26.72 20.56L26.72 16.68L1.33 16.68L1.33 19.56C1.33 20.11 1.78 20.56 2.33 20.56L6.77 20.56C7.09 18.67 8.74 17.23 10.72 17.23C12.69 17.23 14.34 18.67 14.66 20.56L14.66 20.56ZM10.72 23.89C12.19 23.89 13.38 22.69 13.38 21.22C13.38 19.75 12.19 18.56 10.72 18.56C9.25 18.56 8.05 19.75 8.05 21.22C8.05 22.69 9.25 23.89 10.72 23.89ZM26.72 14.14L26.72 15.35L1.33 15.35L1.33 14.14L26.72 14.14ZM5.22 7.31L6.66 7.31L6.66 10.04C6.66 10.41 6.96 10.71 7.33 10.71L10.12 10.71C10.48 10.71 10.78 10.41 10.78 10.04L10.78 7.31L12.22 7.31L12.22 12.81L5.22 12.81L5.22 7.31L5.22 7.31ZM7.99 7.31L7.99 9.37L9.45 9.37L9.45 7.31L7.99 7.31ZM16.43 7.31L17.87 7.31L17.87 10.04C17.87 10.41 18.17 10.71 18.53 10.71L21.32 10.71C21.69 10.71 21.99 10.41 21.99 10.04L21.99 7.31L23.43 7.31L23.43 12.81L16.43 12.81L16.43 7.31ZM19.2 7.31L19.2 9.37L20.66 9.37L20.66 7.31L19.2 7.31ZM42.46 9.4L39.15 1.62C38.73 0.62 37.75 0 36.59 0L27.39 0C27.02 0 26.72 0.29 26.72 0.66L26.72 12.81L24.76 12.81L24.76 6.64C24.76 6.27 24.46 5.98 24.09 5.98L15.76 5.98C15.39 5.98 15.1 6.27 15.1 6.64L15.1 12.81L13.55 12.81L13.55 6.64C13.55 6.27 13.26 5.98 12.89 5.98L4.56 5.98C4.19 5.98 3.89 6.27 3.89 6.64L3.89 12.81L0.66 12.81C0.29 12.81 0 13.11 0 13.47L0 19.56C0 20.84 1.04 21.89 2.33 21.89L6.77 21.89C7.09 23.78 8.74 25.22 10.72 25.22C12.69 25.22 14.34 23.78 14.66 21.89L30.74 21.89C31.06 23.78 32.71 25.22 34.69 25.22C36.66 25.22 38.31 23.78 38.63 21.89L40.73 21.89C41.79 21.89 42.65 21.03 42.65 19.97L42.65 10.35C42.65 10.01 42.59 9.71 42.46 9.4L42.46 9.4Z" fill="#F4F4F4" fill-opacity="1.000000" fill-rule="evenodd"/>
</svg>
