<svg width="50.000000" height="50.000000" viewBox="0 0 50 50" fill="none" xmlns="http://www.w3.org/2000/svg" xmlns:xlink="http://www.w3.org/1999/xlink">
	<desc>
			Created with Pixso.
	</desc>
	<defs/>
	<circle id="Ellipse 126" cx="25.000000" cy="25.000000" r="25.000000" fill="#FFFFFF" fill-opacity="1.000000"/>
	<circle id="Ellipse 126" cx="25.000000" cy="25.000000" r="24.500000" stroke="#323232" stroke-opacity="1.000000" stroke-width="1.000000"/>
	<path id="Arrow 1" d="M31.58 24L27.63 20.05C27.24 19.65 27.24 19.03 27.63 18.63C28.03 18.24 28.65 18.24 29.05 18.63L34.7 24.29C35.1 24.68 35.1 25.31 34.7 25.7L29.05 31.36C28.65 31.75 28.03 31.75 27.63 31.36C27.24 30.96 27.24 30.34 27.63 29.94L31.58 26L17 26C16.43 26 16 25.56 16 25C16 24.43 16.43 24 17 24L31.58 24Z" fill="#323232" fill-opacity="1.000000" fill-rule="evenodd"/>
</svg>
