<svg width="50.000000" height="50.000000" viewBox="0 0 50 50" fill="none" xmlns="http://www.w3.org/2000/svg" xmlns:xlink="http://www.w3.org/1999/xlink">
	<desc>
			Created with Pixso.
	</desc>
	<defs/>
	<circle id="Ellipse 127" cx="25.000000" cy="25.000000" r="25.000000" fill="#FFFFFF" fill-opacity="1.000000"/>
	<circle id="Ellipse 127" cx="25.000000" cy="25.000000" r="24.500000" stroke="#323232" stroke-opacity="1.000000" stroke-width="1.000000"/>
	<path id="Arrow 2" d="M19.41 24L23.36 20.05C23.75 19.65 23.75 19.03 23.36 18.63C22.96 18.24 22.34 18.24 21.94 18.63L16.29 24.29C15.89 24.68 15.89 25.31 16.29 25.7L21.94 31.36C22.34 31.75 22.96 31.75 23.36 31.36C23.75 30.96 23.75 30.34 23.36 29.94L19.41 26L34 26C34.56 26 35 25.56 35 25C35 24.43 34.56 24 34 24L19.41 24Z" fill="#323232" fill-opacity="1.000000" fill-rule="evenodd"/>
</svg>
